<?xml version="1.0" encoding="utf-8"?>
<!-- Generator: Adobe Illustrator 16.0.3, SVG Export Plug-In . SVG Version: 6.00 Build 0)  -->
<!DOCTYPE svg PUBLIC "-//W3C//DTD SVG 1.1//EN" "http://www.w3.org/Graphics/SVG/1.1/DTD/svg11.dtd">
<svg version="1.1" xmlns="http://www.w3.org/2000/svg" xmlns:xlink="http://www.w3.org/1999/xlink" x="0px" y="0px"
	 width="108.088px" height="294.85px" viewBox="0 0 108.088 294.85" enable-background="new 0 0 108.088 294.85"
	 xml:space="preserve">
<g id="Layer_1">
	<g id="f4KaJQ_1_" opacity="0.5">
		<g>
			<path fill="#FF746F" d="M14.934,166.249c0-0.3,0-0.602,0-0.9c0.434-0.184,0.925-0.291,1.291-0.563
				c1.573-1.183,3.031-2.533,4.675-3.604c5.048-3.283,10.163-6.461,15.248-9.688c0.69-0.438,1.346-0.931,2.027-1.383
				c0.949-0.629,1.907-1.241,2.86-1.862c0.5,0,1,0,1.5,0c0.214,0.543,0.363,1.123,0.652,1.623c1.325,2.292,2.705,4.553,4.037,6.841
				c2.606,4.477,5.195,8.964,7.908,13.647c5.285-5.431,10.454-10.74,15.705-16.137c5.71,4.443,11.355,8.834,16.999,13.227
				c0,0.3,0,0.6,0,0.898c-0.59,0.54-1.233,1.031-1.76,1.626c-2.845,3.212-5.687,6.428-8.481,9.686
				c-3.978,4.631-7.91,9.301-11.869,13.946c-3.225,3.785-6.459,7.562-9.688,11.344c-0.2,0-0.399,0-0.601,0
				c-2.73-2.582-5.473-5.153-8.191-7.748c-4.677-4.46-9.356-8.918-14.005-13.407c-4.156-4.013-8.258-8.081-12.415-12.092
				C18.897,169.845,16.899,168.064,14.934,166.249z"/>
			<path fill="none" d="M47.242,197.201c2.72,2.594,5.46,5.166,8.192,7.748c-13.476,0-26.951,0-40.5,0c0-12.9,0-25.801,0-38.7
				c1.965,1.813,3.964,3.596,5.888,5.453"/>
			<path fill="none" d="M56.034,204.949c3.23-3.78,6.465-7.559,9.689-11.344c3.959-4.646,7.892-9.315,11.867-13.946
				c2.797-3.258,5.639-6.474,8.482-9.686c0.525-0.595,1.17-1.086,1.76-1.626c0,12.2,0,24.4,0,36.602
				C77.233,204.949,66.634,204.949,56.034,204.949z"/>
			<path fill="none" d="M87.834,167.449c-5.644-4.393-11.289-8.782-16.999-13.227c-5.251,5.396-10.42,10.707-15.705,16.137
				c-2.713-4.685-5.301-9.172-7.908-13.647c-1.332-2.288-2.711-4.549-4.037-6.841c-0.289-0.5-0.438-1.08-0.652-1.623
				c15.065,0,30.13,0,45.3,0C87.834,154.649,87.834,161.049,87.834,167.449z"/>
			<path fill="none" d="M41.034,148.249c-0.954,0.621-1.912,1.233-2.86,1.862c-0.681,0.452-1.337,0.943-2.027,1.383
				c-5.084,3.227-10.2,6.403-15.248,9.688c-1.644,1.069-3.102,2.42-4.675,3.604c-0.366,0.272-0.857,0.381-1.291,0.563
				c0-5.7,0-11.398,0-17.1C23.634,148.249,32.334,148.249,41.034,148.249z"/>
		</g>
	</g>
</g>
<g id="Layer_2">
	
		<image overflow="visible" opacity="0.15" enable-background="new    " width="102" height="251" xlink:href="11D55ABA5C82CCA2.png"  transform="matrix(1 0 0 1 6.5439 45.925)">
	</image>
</g>
</svg>
