<?xml version="1.0" encoding="utf-8"?>
<!-- Generator: Adobe Illustrator 16.0.3, SVG Export Plug-In . SVG Version: 6.00 Build 0)  -->
<!DOCTYPE svg PUBLIC "-//W3C//DTD SVG 1.1//EN" "http://www.w3.org/Graphics/SVG/1.1/DTD/svg11.dtd">
<svg version="1.1" xmlns="http://www.w3.org/2000/svg" xmlns:xlink="http://www.w3.org/1999/xlink" x="0px" y="0px"
	 width="216.601px" height="496.801px" viewBox="0 0 216.601 496.801" enable-background="new 0 0 216.601 496.801"
	 xml:space="preserve">
<g id="Layer_1" display="none">
</g>
<g id="Layer_2">
	<path fill-rule="evenodd" clip-rule="evenodd" fill="#FFFFFF" d="M194.399,496.801c0.081-1.189,0.231-2.379,0.231-3.568
		c0.012-69.375,0.011-210.465,0.011-211.656c-28.721,28.723-57.274,57.279-86.128,86.135c-29.271-29.275-57.841-57.85-86.411-86.424
		c-0.248,0.066-0.496,0.133-0.744,0.197c0,1.232-0.025,77.471,0.053,114.357c0.006,2.664-0.555,3.674-3.449,3.592
		C11.981,399.266,5.988,399.52,0,399.6C0,266.4,0,133.2,0,0c7.2,0,21.6,0,21.6,0l-0.231,3.269c0,0-0.01,117.198-0.01,175.797
		c0,1.08,0,3.552,0,3.552s8.558-3.989,12.567-6.064c4.303-2.229,8.475-4.708,12.748-6.994c9.419-5.042,18.881-10.003,28.286-15.072
		c1.473-0.794,2.333-0.488,3.262,0.748c6.712,8.929,13.429,17.855,20.218,26.726c1.448,1.893,1.657,3.406,0.184,5.495
		c-3.183,4.509-6.069,9.228-9.393,14.347c-2.283-5.322-4.429-10.326-6.788-15.825c-2.548,2.021-4.958,3.833-7.259,5.775
		c-10.605,8.948-21.181,17.931-31.765,26.905c-6.576,5.576-13.118,11.193-19.736,16.719c-1.942,1.622-1.739,2.742,0.007,4.481
		c27.415,27.314,54.772,54.686,82.104,82.083c1.527,1.531,2.485,1.979,4.283,0.174c25.394-25.516,50.868-50.953,76.315-76.416
		c0.615-0.616,1.141-1.32,1.878-2.182c-8.105-6.785-16.072-13.419-23.998-20.102c-4.627-3.9-9.236-7.823-13.764-11.836
		c-3.373-2.991-3.292-3.046-6.393-0.004c-9.764,9.58-19.54,19.148-29.319,28.712c-0.487,0.477-1.046,0.878-1.929,1.611
		c-4.421-6.595-8.738-13.035-13.225-19.727c17.931-16.019,35.804-31.986,53.974-48.218c3.833,4.358,7.457,8.406,10.999,12.524
		c4.199,4.881,8.321,9.828,12.488,14.737c5.579,6.573,11.143,13.16,16.762,19.699c5.365,6.246,10.77,12.459,16.203,18.646
		c2.111,2.404,6.531,7.44,6.531,7.64c-0.281,1.242-0.842,165.265-0.831,246.032c0,1.189,0.15,2.379,0.23,3.568
		C208.8,496.801,201.601,496.801,194.399,496.801z"/>
</g>
</svg>
