<?xml version="1.0" encoding="utf-8"?>
<!-- Generator: Adobe Illustrator 16.0.3, SVG Export Plug-In . SVG Version: 6.00 Build 0)  -->
<!DOCTYPE svg PUBLIC "-//W3C//DTD SVG 1.1//EN" "http://www.w3.org/Graphics/SVG/1.1/DTD/svg11.dtd">
<svg version="1.1" id="Layer_1" xmlns="http://www.w3.org/2000/svg" xmlns:xlink="http://www.w3.org/1999/xlink" x="0px" y="0px"
	 width="612px" height="792px" viewBox="0 0 612 792" enable-background="new 0 0 612 792" xml:space="preserve">
<g id="bUmtUd_1_">
	<g>
		<path fill="#FFFFFF" d="M162-17c108.26,0,216.52,0,325,0c0,137,0,274,0,411c-3.635-3.905-7.366-7.727-10.885-11.733
			c-9.057-10.312-18.063-20.667-27.006-31.077c-9.363-10.9-18.637-21.877-27.936-32.833c-6.945-8.182-13.815-16.427-20.813-24.562
			c-5.903-6.863-11.942-13.609-18.332-20.873c-30.282,27.053-60.071,53.666-89.956,80.363c7.478,11.154,14.673,21.887,22.041,32.879
			c1.471-1.221,2.402-1.891,3.215-2.685c16.299-15.941,32.592-31.888,48.865-47.854c5.168-5.07,5.033-4.978,10.654,0.006
			c7.546,6.69,15.229,13.228,22.939,19.728c13.21,11.137,26.488,22.194,39.997,33.503c-1.229,1.437-2.105,2.61-3.131,3.637
			c-42.411,42.438-84.868,84.832-127.191,127.358c-2.996,3.01-4.593,2.263-7.138-0.289c-45.552-45.662-91.148-91.28-136.84-136.804
			c-2.91-2.898-3.249-4.766-0.012-7.469c11.03-9.21,21.933-18.571,32.893-27.865c17.639-14.957,35.266-29.928,52.941-44.842
			c3.835-3.236,7.852-6.256,12.099-9.625c3.931,9.165,7.508,17.504,11.312,26.375c5.539-8.533,10.349-16.397,15.654-23.913
			c2.457-3.48,2.107-6.003-0.306-9.157c-11.314-14.785-22.509-29.662-33.697-44.544c-1.549-2.061-2.982-2.57-5.437-1.247
			c-15.674,8.448-31.444,16.717-47.143,25.12c-7.122,3.812-14.075,7.943-21.246,11.657c-6.682,3.46-13.551,6.558-20.945,10.107
			c0-2.32,0-4.12,0-5.92c0-97.665-0.002-195.33,0.017-292.995C161.615-13.369,161.866-15.184,162-17z"/>
		<path fill-rule="evenodd" clip-rule="evenodd" fill="#FFFFFF" d="M450,811c-107.889,0-215.778,0-324,0c0-54,0-108,0-162
			c9.98-0.134,19.969-0.559,29.938-0.276c4.824,0.137,5.758-1.548,5.748-5.986c-0.131-61.479-0.088-122.958-0.088-184.437
			c0-2.054,0-4.107,0-6.16c0.413-0.109,0.827-0.219,1.24-0.328c47.617,47.623,95.233,95.247,144.019,144.04
			c48.089-48.094,95.679-95.688,143.546-143.559c0,1.983,0,3.931,0,5.879c0,115.627,0.002,231.255-0.018,346.882
			C450.385,807.036,450.134,809.019,450,811z"/>
		<path fill-rule="evenodd" clip-rule="evenodd" d="M493,794.998c0.134-1.98,0.385-3.963,0.385-5.945
			c0.02-115.627,0.018-350.777,0.018-352.76c-47.867,47.871-95.457,95.465-143.546,143.559
			c-48.786-48.793-96.402-96.418-144.019-144.041c-0.413,0.109-0.827,0.219-1.24,0.328c0,2.053-0.042,129.119,0.088,190.598
			c0.01,4.438-0.924,6.123-5.748,5.986c-9.969-0.283-19.958,0.143-29.938,0.275c0-222,0-443.999,0-665.999c12,0,36,0,36,0
			l-0.385,5.447c0,0-0.017,195.33-0.017,292.995c0,1.8,0,5.92,0,5.92s93.222-47.698,94.771-45.637
			c11.188,14.882,22.382,29.759,33.697,44.544c2.413,3.154,2.763,5.677,0.306,9.157c-5.305,7.515-10.115,15.38-15.654,23.913
			c-3.805-8.871-7.381-17.21-11.312-26.375c-4.247,3.369-8.264,6.389-12.099,9.625c-17.675,14.914-88.732,77.277-85.822,80.176
			c45.691,45.523,91.288,91.141,136.84,136.803c2.545,2.553,136.231-129.269,137.46-130.705
			c-13.509-11.309-68.423-58.307-73.591-53.237c-16.273,15.967-50.609,49.318-52.08,50.539
			c-7.368-10.992-14.563-21.725-22.041-32.879c29.885-26.697,59.674-53.311,89.956-80.363C431.418,264.185,530,378.666,530,378.999
			c-0.467,2.069-1.402,275.438-1.384,410.054c0,1.982,0.25,3.965,0.384,5.945C517,794.998,505,794.998,493,794.998z"/>
		<path fill-rule="evenodd" clip-rule="evenodd" fill="#FFFFFF" d="M486,811c-0.134-1.981-0.384-3.964-0.384-5.945
			c-0.019-134.615,1.387-135.722,1.343,1.445C486.958,808,486.333,809.5,486,811z"/>
	</g>
</g>
<g id="f4KaJQ_1_">
	<g>
		<g>
			<path fill="#EC5064" d="M219.403,362.5c0-1,0-2,0-3c1.326-0.487,2.828-0.722,3.95-1.502c9.75-6.784,19.289-13.878,29.168-20.464
				c12.308-8.206,24.862-16.043,37.348-23.979c3.062-1.946,6.366-3.52,9.392-5.516c2.507-1.654,4.771-3.679,7.142-5.54
				c1.667,0,3.334,0,5,0c0.707,1.805,1.194,3.737,2.154,5.396c7.191,12.414,14.485,24.767,21.727,37.152
				c5.96,10.191,11.891,20.398,18.584,31.884c1.598-2.192,2.514-3.826,3.775-5.123c15.173-15.579,30.426-31.08,45.569-46.686
				c1.858-1.915,3.271-2.809,5.613-0.756c3.446,3.02,7.045,5.871,10.657,8.694c14.291,11.167,28.611,22.296,42.92,33.439
				c0,1,0,2,0,3c-1.21,0.735-2.71,1.222-3.586,2.244c-6.936,8.091-13.676,16.349-20.627,24.427
				c-7.295,8.479-14.844,16.74-22.128,25.229c-11.221,13.073-22.3,26.269-33.46,39.394c-8.716,10.25-17.465,20.472-26.199,30.706
				c-0.666,0-1.333,0-2,0c-9.103-8.604-18.237-17.174-27.301-25.818c-15.591-14.869-31.188-29.73-46.687-44.694
				c-13.855-13.376-27.53-26.939-41.388-40.312C232.612,374.485,225.952,368.551,219.403,362.5z"/>
			<path fill-rule="evenodd" clip-rule="evenodd" fill="none" d="M219.403,362.5c6.549,6.05,13.209,11.984,19.624,18.174
				c13.858,13.373,27.533,26.937,41.388,40.312c15.499,14.964,31.096,29.825,46.687,44.694c9.063,8.645,18.198,17.215,27.301,25.818
				c-44.914,0-89.83,0-135,0C219.403,448.501,219.403,405.5,219.403,362.5z"/>
			<path fill-rule="evenodd" clip-rule="evenodd" fill="none" d="M356.402,491.5c8.734-10.234,17.483-20.456,26.199-30.706
				c11.16-13.125,22.239-26.32,33.46-39.394c7.284-8.488,14.833-16.75,22.128-25.229c6.951-8.078,13.691-16.336,20.627-24.427
				c0.876-1.022,2.376-1.509,3.586-2.244c0,40.667,0,81.333,0,122C427.069,491.5,391.736,491.5,356.402,491.5z"/>
			<path fill-rule="evenodd" clip-rule="evenodd" fill="none" d="M462.402,366.5c-14.309-11.143-28.629-22.272-42.92-33.439
				c-3.612-2.823-7.211-5.675-10.657-8.694c-2.342-2.052-3.755-1.159-5.613,0.756c-15.144,15.606-30.396,31.107-45.569,46.686
				c-1.262,1.296-2.178,2.93-3.775,5.123c-6.693-11.485-12.624-21.693-18.584-31.884c-7.241-12.385-14.535-24.738-21.727-37.152
				c-0.96-1.658-1.447-3.59-2.154-5.396c50.217,0,100.434,0,151,0C462.402,323.833,462.402,345.167,462.402,366.5z"/>
			<path fill-rule="evenodd" clip-rule="evenodd" fill="none" d="M306.402,302.5c-2.371,1.86-4.635,3.885-7.142,5.54
				c-3.026,1.996-6.33,3.569-9.392,5.516c-12.486,7.936-25.041,15.773-37.348,23.979c-9.879,6.586-19.418,13.681-29.168,20.464
				c-1.122,0.78-2.624,1.015-3.95,1.502c0-19,0-38,0-57C248.403,302.5,277.403,302.5,306.402,302.5z"/>
		</g>
	</g>
</g>
</svg>
