<?xml version="1.0" encoding="utf-8"?>
<!-- Generator: Adobe Illustrator 16.0.3, SVG Export Plug-In . SVG Version: 6.00 Build 0)  -->
<!DOCTYPE svg PUBLIC "-//W3C//DTD SVG 1.1//EN" "http://www.w3.org/Graphics/SVG/1.1/DTD/svg11.dtd">
<svg version="1.1" id="Layer_1" xmlns="http://www.w3.org/2000/svg" xmlns:xlink="http://www.w3.org/1999/xlink" x="0px" y="0px"
	 width="108.088px" height="294.85px" viewBox="0 0 108.088 294.85" enable-background="new 0 0 108.088 294.85"
	 xml:space="preserve">
<path fill="#FFFFFF" d="M97.2,294.85c0.04-0.595,0.115-1.188,0.115-1.783c0.006-34.688,0.006-105.232,0.006-105.828
	c-14.36,14.36-28.639,28.641-43.064,43.067c-14.636-14.639-28.92-28.926-43.206-43.212c-0.124,0.032-0.248,0.065-0.372,0.099
	c0,0.615-0.013,38.734,0.026,57.18c0.003,1.331-0.277,1.837-1.724,1.796c-2.99-0.086-5.987,0.042-8.981,0.082
	c0-66.602,0-133.2,0-199.8c3.601,0,10.8,0,10.8,0l-0.116,1.634c0,0-0.005,58.599-0.005,87.897c0,0.54,0,1.776,0,1.776
	s4.279-1.994,6.283-3.032c2.151-1.114,4.237-2.354,6.374-3.497c4.709-2.521,9.44-5.002,14.143-7.536
	c0.737-0.396,1.167-0.243,1.631,0.374c3.356,4.465,6.715,8.929,10.109,13.363c0.724,0.946,0.829,1.703,0.092,2.747
	c-1.591,2.254-3.034,4.614-4.696,7.174c-1.141-2.661-2.214-5.163-3.394-7.913c-1.274,1.011-2.479,1.917-3.63,2.888
	c-5.302,4.475-10.59,8.966-15.882,13.452c-3.288,2.789-6.559,5.598-9.868,8.36c-0.971,0.812-0.869,1.371,0.004,2.24
	c13.707,13.657,27.386,27.343,41.052,41.041c0.764,0.766,1.243,0.99,2.142,0.087c12.696-12.758,25.435-25.476,38.157-38.208
	c0.308-0.308,0.57-0.66,0.938-1.091c-4.053-3.394-8.036-6.709-11.999-10.051c-2.312-1.95-4.617-3.911-6.882-5.918
	c-1.687-1.495-1.646-1.523-3.196-0.003c-4.883,4.79-9.771,9.574-14.66,14.356c-0.242,0.238-0.522,0.439-0.963,0.805
	c-2.211-3.297-4.37-6.517-6.613-9.863c8.965-8.01,17.902-15.993,26.986-24.109c1.918,2.179,3.729,4.203,5.5,6.262
	c2.101,2.44,4.16,4.914,6.244,7.368c2.789,3.287,5.571,6.58,8.381,9.85c2.683,3.123,5.385,6.23,8.103,9.323
	c1.055,1.202,3.266,3.721,3.266,3.82c-0.141,0.621-0.421,82.632-0.416,123.017c0,0.596,0.075,1.188,0.115,1.783
	C104.399,294.85,100.801,294.85,97.2,294.85z"/>
<g id="f4KaJQ_1_">
	<g>
		<path fill="#FF746F" d="M14.934,166.249c0-0.3,0-0.601,0-0.9c0.434-0.184,0.925-0.291,1.291-0.564
			c1.573-1.182,3.031-2.533,4.675-3.603c5.048-3.283,10.163-6.461,15.248-9.688c0.69-0.438,1.346-0.93,2.027-1.382
			c0.949-0.629,1.907-1.242,2.86-1.863c0.5,0,1,0,1.5,0c0.214,0.543,0.363,1.123,0.652,1.623c1.325,2.292,2.705,4.553,4.037,6.841
			c2.606,4.477,5.195,8.964,7.908,13.648c5.285-5.431,10.454-10.741,15.705-16.137c5.71,4.443,11.355,8.834,16.999,13.226
			c0,0.3,0,0.6,0,0.899c-0.59,0.54-1.233,1.031-1.76,1.626c-2.845,3.212-5.687,6.428-8.481,9.685
			c-3.978,4.631-7.91,9.301-11.869,13.947c-3.225,3.785-6.459,7.562-9.689,11.343c-0.2,0-0.4,0-0.6,0
			c-2.731-2.582-5.473-5.153-8.192-7.748c-4.677-4.46-9.356-8.918-14.005-13.407c-4.156-4.013-8.258-8.081-12.415-12.092
			C18.897,169.845,16.899,168.064,14.934,166.249z"/>
		<path fill="none" d="M14.934,166.249c1.965,1.814,3.964,3.596,5.888,5.453c4.157,4.011,8.259,8.08,12.415,12.092
			c4.649,4.489,9.329,8.947,14.005,13.407c2.72,2.594,5.46,5.166,8.192,7.748c-13.475,0-26.95,0-40.5,0
			C14.934,192.049,14.934,179.149,14.934,166.249z"/>
		<path fill="none" d="M56.034,204.949c3.23-3.78,6.465-7.558,9.689-11.343c3.959-4.646,7.892-9.316,11.868-13.947
			c2.796-3.257,5.638-6.473,8.482-9.685c0.526-0.595,1.17-1.086,1.76-1.626c0,12.2,0,24.4,0,36.601
			C77.233,204.949,66.634,204.949,56.034,204.949z"/>
		<path fill="none" d="M87.834,167.449c-5.644-4.392-11.289-8.782-16.999-13.226c-5.251,5.396-10.42,10.707-15.705,16.137
			c-2.713-4.685-5.301-9.172-7.908-13.648c-1.332-2.288-2.711-4.549-4.037-6.841c-0.289-0.5-0.438-1.08-0.652-1.623
			c15.065,0,30.13,0,45.3,0C87.834,154.649,87.834,161.049,87.834,167.449z"/>
		<path fill="none" d="M41.034,148.249c-0.954,0.621-1.912,1.234-2.86,1.863c-0.681,0.452-1.337,0.943-2.027,1.382
			c-5.084,3.227-10.2,6.404-15.248,9.688c-1.644,1.069-3.102,2.42-4.675,3.603c-0.366,0.273-0.857,0.381-1.291,0.564
			c0-5.7,0-11.399,0-17.1C23.634,148.249,32.334,148.249,41.034,148.249z"/>
	</g>
</g>
</svg>
