<?xml version="1.0" encoding="utf-8"?>
<!-- Generator: Adobe Illustrator 16.0.3, SVG Export Plug-In . SVG Version: 6.00 Build 0)  -->
<!DOCTYPE svg PUBLIC "-//W3C//DTD SVG 1.1//EN" "http://www.w3.org/Graphics/SVG/1.1/DTD/svg11.dtd">
<svg version="1.1" xmlns="http://www.w3.org/2000/svg" xmlns:xlink="http://www.w3.org/1999/xlink" 
     
     <svg:style
    xmlns:svg="http://www.w3.org/2000/svg" type="text/css">
      .i { display: none; fill: #010101; }
      .i:target { display: block; }
  </svg:style>
<svg:svg
 xmlns:svg="http://www.w3.org/2000/svg" 
  class="i" 
  id="first" 
	 width="32.372px" height="62px" viewBox="0 0 32.372 62" enable-background="new 0 0 32.372 62" xml:space="preserve">
	<path fill-rule="evenodd" clip-rule="evenodd" fill="#FFFFFF" d="M29.16,69.66c0.012-0.178,0.035-0.356,0.035-0.535
		c0.002-10.406,0.001-31.569,0.001-31.748c-4.308,4.308-8.591,8.592-12.919,12.92c-4.391-4.391-8.676-8.677-12.962-12.963
		c-0.037,0.01-0.074,0.02-0.111,0.029c0,0.185-0.004,11.621,0.008,17.154c0.001,0.399-0.083,0.551-0.517,0.539
		C1.797,55.03,0.898,55.068,0,55.08C0,35.1,0,15.12,0-4.86c1.08,0,3.24,0,3.24,0L3.206-4.369c0,0-0.001,17.579-0.001,26.369
		c0,0.162,0,0.533,0,0.533s1.284-0.599,1.885-0.91c0.646-0.334,1.271-0.706,1.912-1.049c1.413-0.756,2.833-1.5,4.243-2.261
		c0.221-0.119,0.35-0.073,0.489,0.112c1.007,1.339,2.014,2.678,3.033,4.009c0.217,0.284,0.249,0.511,0.027,0.824
		c-0.478,0.676-0.91,1.384-1.409,2.152c-0.342-0.798-0.665-1.549-1.018-2.374c-0.382,0.303-0.744,0.575-1.089,0.866
		c-1.591,1.342-3.177,2.689-4.765,4.036c-0.986,0.836-1.968,1.679-2.96,2.508c-0.292,0.244-0.261,0.412,0.001,0.672
		c4.112,4.097,8.216,8.203,12.315,12.312c0.229,0.229,0.373,0.297,0.643,0.026c3.809-3.827,7.63-7.643,11.447-11.462
		c0.092-0.092,0.171-0.198,0.282-0.327c-1.216-1.018-2.411-2.013-3.6-3.016c-0.694-0.585-1.386-1.173-2.064-1.775
		c-0.506-0.448-0.494-0.457-0.959,0c-1.465,1.437-2.931,2.873-4.398,4.307c-0.073,0.071-0.157,0.132-0.29,0.241
		c-0.663-0.989-1.311-1.955-1.983-2.959c2.689-2.402,5.371-4.798,8.096-7.232c0.575,0.653,1.119,1.261,1.65,1.878
		c0.629,0.732,1.248,1.474,1.873,2.21c0.837,0.986,1.671,1.974,2.514,2.955c0.805,0.937,1.616,1.869,2.43,2.797
		c0.317,0.361,0.98,1.116,0.98,1.146c-0.042,0.187-0.126,24.79-0.125,36.905c0,0.179,0.022,0.357,0.034,0.535
		C31.32,69.66,30.24,69.66,29.16,69.66z"/>
	<path fill="#FF746F" d="M4.88,30.579c0-0.084,0-0.169,0-0.254c0.122-0.052,0.261-0.083,0.365-0.16
		c0.445-0.334,0.857-0.716,1.322-1.019c1.427-0.928,2.873-1.826,4.31-2.738c0.195-0.124,0.381-0.263,0.574-0.391
		c0.269-0.178,0.539-0.352,0.808-0.527c0.142,0,0.283,0,0.424,0c0.061,0.153,0.103,0.318,0.184,0.458
		c0.375,0.648,0.765,1.288,1.142,1.935c0.737,1.265,1.469,2.534,2.236,3.859c1.494-1.536,2.955-3.037,4.44-4.563
		c1.615,1.257,3.21,2.499,4.806,3.739c0,0.085,0,0.17,0,0.255c-0.167,0.152-0.349,0.292-0.498,0.459
		c-0.804,0.908-1.607,1.817-2.398,2.738c-1.125,1.31-2.236,2.63-3.356,3.944c-0.912,1.069-1.826,2.138-2.739,3.207
		c-0.057,0-0.113,0-0.17,0c-0.772-0.73-1.547-1.457-2.316-2.19c-1.322-1.261-2.645-2.521-3.959-3.79
		c-1.176-1.135-2.335-2.286-3.511-3.419C6,31.596,5.436,31.093,4.88,30.579z"/>
</svg:svg>
    </svg>
