<?xml version="1.0" encoding="utf-8"?>
<!-- Generator: Adobe Illustrator 16.0.3, SVG Export Plug-In . SVG Version: 6.00 Build 0)  -->
<!DOCTYPE svg PUBLIC "-//W3C//DTD SVG 1.1//EN" "http://www.w3.org/Graphics/SVG/1.1/DTD/svg11.dtd">
<svg version="1.1" id="Layer_1" xmlns="http://www.w3.org/2000/svg" xmlns:xlink="http://www.w3.org/1999/xlink" x="0px" y="0px"
	 width="108.088px" height="294.85px" viewBox="0 0 108.088 294.85" enable-background="new 0 0 108.088 294.85"
	 xml:space="preserve">
<path opacity="0.3" fill="#FFFFFF" d="M5.959,246.169c0-0.088,2.272-0.021,3.022,0c1.447,0.041,1.727-0.465,1.724-1.796
	c-0.039-18.446-0.026-56.565-0.026-57.181c0.124-0.033,0.248-0.066,0.372-0.099c14.286,14.286,28.57,28.573,43.206,43.212
	c14.426-14.426,34.415-34.168,48.775-48.527c0,0.596,0.511,77.865,0.302,112.552c-0.04,6.845,0,0-0.04,0.595
	c3.601,0,1.105-0.075,4.706-0.078c-0.04-0.595-0.115-1.187-0.115-1.783c-0.005-40.385,0.275-122.396,0.416-123.017
	c0-0.099-2.211-2.618-3.266-3.82c-2.718-3.093-5.42-6.2-8.103-9.322c-2.811-3.271-5.593-6.563-8.382-9.851
	c-2.084-2.454-4.143-4.928-6.243-7.368c-1.771-2.059-3.582-4.083-5.5-6.262c-9.084,8.116-18.021,16.099-26.987,24.109
	c2.243,3.346,4.402,6.565,6.614,9.862c0.44-0.365,0.721-0.566,0.963-0.805c4.889-4.782,9.776-9.566,14.66-14.356
	c1.549-1.52,1.508-1.491,3.195,0.004c2.266,2.007,4.57,3.968,6.882,5.918c3.964,3.342,7.946,6.656,11.999,10.051
	c-0.367,0.431-0.63,0.783-0.938,1.091c-12.723,12.732-25.461,25.45-38.157,38.208c-0.899,0.903-1.378,0.679-2.142-0.087
	c-13.666-13.698-27.345-27.384-41.052-41.041c-0.873-0.869-0.975-1.428-0.004-2.24c3.309-2.762,6.58-5.571,9.868-8.36
	c5.292-4.485,10.58-8.977,15.882-13.451c1.151-0.972,2.356-1.877,3.63-2.889c1.18,2.75,2.253,5.252,3.394,7.913
	c1.662-2.56,3.105-4.92,4.696-7.174c0.737-1.044,0.632-1.801-0.092-2.747c-3.394-4.434-6.753-8.897-10.109-13.363
	c-0.464-0.616-0.894-0.77-1.631-0.374c-4.703,2.534-9.434,5.016-14.143,7.536c-2.137,1.144-4.223,2.384-6.374,3.497
	c-2.004,1.038-6.283,3.032-6.283,3.032s0-1.236,0-1.776c0-29.298,0.005-87.896,0.005-87.896c0.039-0.544,0.077-1.089,0.116-1.634
	c0,0-1.24,0.206-4.841,0.206C5.959,113.257,5.959,179.567,5.959,246.169z"/>
<g id="f4KaJQ_1_" opacity="0.7">
	<g>
		<path fill="#FF746F" d="M14.934,166.249c0-0.3,0-0.602,0-0.9c0.434-0.184,0.925-0.291,1.291-0.563
			c1.573-1.183,3.031-2.533,4.675-3.604c5.048-3.283,10.163-6.461,15.248-9.688c0.69-0.438,1.346-0.931,2.027-1.383
			c0.949-0.629,1.907-1.241,2.86-1.862c0.5,0,1,0,1.5,0c0.214,0.543,0.363,1.123,0.652,1.623c1.325,2.292,2.705,4.553,4.037,6.841
			c2.606,4.477,5.195,8.964,7.908,13.647c5.285-5.431,10.454-10.74,15.705-16.137c5.71,4.443,11.355,8.834,16.999,13.227
			c0,0.3,0,0.6,0,0.898c-0.59,0.54-1.233,1.031-1.76,1.626c-2.845,3.212-5.687,6.428-8.481,9.686
			c-3.978,4.631-7.91,9.301-11.869,13.946c-3.225,3.785-6.459,7.562-9.688,11.344c-0.2,0-0.399,0-0.601,0
			c-2.73-2.582-5.473-5.153-8.191-7.748c-4.677-4.46-9.356-8.918-14.005-13.407c-4.156-4.013-8.258-8.081-12.415-12.092
			C18.897,169.845,16.899,168.064,14.934,166.249z"/>
	</g>
</g>
</svg>
