<?xml version="1.0" encoding="utf-8"?>
<!-- Generator: Adobe Illustrator 16.0.3, SVG Export Plug-In . SVG Version: 6.00 Build 0)  -->
<!DOCTYPE svg PUBLIC "-//W3C//DTD SVG 1.1//EN" "http://www.w3.org/Graphics/SVG/1.1/DTD/svg11.dtd">
<svg version="1.1" id="Layer_1" xmlns="http://www.w3.org/2000/svg" xmlns:xlink="http://www.w3.org/1999/xlink" x="0px" y="0px"
	 width="200px" height="200px" viewBox="0 0 200 200" enable-background="new 0 0 200 200" xml:space="preserve">
<path fill-rule="evenodd" clip-rule="evenodd" fill="#1ABC9C" d="M140.7,225.85c0.04-0.595,0.115-1.188,0.115-1.783
	c0.006-34.688,0.006-105.233,0.006-105.829c-14.36,14.361-28.638,28.641-43.064,43.068c-14.636-14.639-28.92-28.926-43.206-43.212
	c-0.124,0.032-0.248,0.065-0.372,0.099c0,0.615-0.013,38.734,0.026,57.179c0.003,1.331-0.277,1.837-1.724,1.796
	c-2.991-0.085-5.988,0.043-8.982,0.083c0-66.601,0-133.2,0-199.8c3.601,0,10.8,0,10.8,0l-0.116,1.634c0,0-0.005,58.599-0.005,87.898
	c0,0.54,0,1.776,0,1.776s4.279-1.994,6.283-3.032c2.151-1.114,4.237-2.354,6.374-3.497c4.709-2.521,9.44-5.002,14.143-7.536
	c0.737-0.397,1.167-0.244,1.631,0.374c3.356,4.464,6.715,8.928,10.109,13.363c0.724,0.946,0.829,1.703,0.092,2.747
	c-1.591,2.254-3.034,4.614-4.696,7.174c-1.141-2.661-2.214-5.163-3.394-7.913c-1.274,1.01-2.479,1.917-3.63,2.887
	c-5.302,4.475-10.59,8.966-15.882,13.453c-3.288,2.789-6.559,5.597-9.868,8.36c-0.971,0.811-0.869,1.371,0.004,2.24
	c13.707,13.657,27.386,27.343,41.052,41.041c0.764,0.766,1.243,0.99,2.142,0.087c12.697-12.758,25.434-25.476,38.157-38.208
	c0.308-0.308,0.571-0.66,0.939-1.091c-4.053-3.393-8.036-6.709-11.999-10.051c-2.313-1.95-4.618-3.911-6.882-5.918
	c-1.687-1.495-1.646-1.523-3.196-0.002c-4.883,4.79-9.771,9.574-14.66,14.356c-0.243,0.238-0.523,0.439-0.964,0.805
	c-2.211-3.297-4.369-6.517-6.612-9.864c8.965-8.009,17.902-15.993,26.986-24.109c1.917,2.179,3.729,4.203,5.5,6.262
	c2.1,2.44,4.16,4.914,6.244,7.368c2.789,3.287,5.571,6.58,8.381,9.85c2.682,3.123,5.385,6.23,8.102,9.323
	c1.055,1.202,3.266,3.72,3.266,3.82c-0.141,0.621-0.421,82.632-0.416,123.017c0,0.595,0.075,1.188,0.115,1.783
	C147.9,225.85,144.301,225.85,140.7,225.85z"/>
<g id="f4KaJQ_1_">
	<g>
		<path fill="#FF746F" d="M58.434,97.249c0-0.3,0-0.6,0-0.9c0.434-0.184,0.925-0.291,1.291-0.565
			c1.573-1.181,3.031-2.533,4.675-3.602c5.048-3.283,10.163-6.461,15.248-9.688c0.69-0.438,1.346-0.929,2.027-1.381
			c0.949-0.629,1.907-1.243,2.86-1.864c0.5,0,1,0,1.5,0c0.214,0.543,0.363,1.123,0.652,1.623c1.325,2.292,2.705,4.553,4.037,6.841
			c2.606,4.477,5.195,8.964,7.908,13.649c5.285-5.431,10.454-10.742,15.705-16.137c5.71,4.443,11.355,8.834,16.999,13.225
			c0,0.3,0,0.6,0,0.9c-0.59,0.54-1.233,1.031-1.76,1.626c-2.845,3.212-5.687,6.428-8.482,9.684
			c-3.977,4.631-7.909,9.301-11.868,13.948c-3.225,3.785-6.459,7.562-9.69,11.342c-0.2,0-0.4,0-0.6,0
			c-2.731-2.582-5.472-5.153-8.192-7.748c-4.677-4.46-9.356-8.918-14.005-13.407c-4.156-4.013-8.258-8.081-12.415-12.092
			C62.397,100.845,60.399,99.064,58.434,97.249z"/>
		<path fill-rule="evenodd" clip-rule="evenodd" fill="none" d="M58.434,97.249c1.965,1.815,3.964,3.596,5.888,5.453
			c4.157,4.011,8.259,8.08,12.415,12.092c4.649,4.489,9.329,8.947,14.005,13.407c2.72,2.594,5.46,5.166,8.192,7.748
			c-13.474,0-26.949,0-40.5,0C58.434,123.049,58.434,110.149,58.434,97.249z"/>
		<path fill-rule="evenodd" clip-rule="evenodd" fill="none" d="M99.534,135.949c3.23-3.78,6.465-7.557,9.69-11.342
			c3.958-4.647,7.891-9.317,11.868-13.948c2.795-3.256,5.637-6.472,8.482-9.684c0.527-0.595,1.17-1.086,1.76-1.626
			c0,12.2,0,24.4,0,36.6C120.734,135.949,110.134,135.949,99.534,135.949z"/>
		<path fill-rule="evenodd" clip-rule="evenodd" fill="none" d="M131.334,98.449c-5.644-4.391-11.289-8.782-16.999-13.225
			c-5.251,5.396-10.42,10.707-15.705,16.137c-2.713-4.685-5.301-9.172-7.908-13.649c-1.332-2.288-2.711-4.549-4.037-6.841
			c-0.289-0.5-0.438-1.08-0.652-1.623c15.065,0,30.13,0,45.3,0C131.334,85.649,131.334,92.049,131.334,98.449z"/>
		<path fill-rule="evenodd" clip-rule="evenodd" fill="none" d="M84.534,79.249c-0.954,0.621-1.912,1.235-2.86,1.864
			c-0.681,0.452-1.337,0.943-2.027,1.381c-5.084,3.227-10.2,6.405-15.248,9.688c-1.644,1.069-3.102,2.42-4.675,3.602
			c-0.366,0.274-0.857,0.381-1.291,0.565c0-5.7,0-11.4,0-17.1C67.134,79.249,75.834,79.249,84.534,79.249z"/>
	</g>
</g>
</svg>
