<?xml version="1.0" encoding="utf-8"?>
<!-- Generator: Adobe Illustrator 16.0.3, SVG Export Plug-In . SVG Version: 6.00 Build 0)  -->
<!DOCTYPE svg PUBLIC "-//W3C//DTD SVG 1.1//EN" "http://www.w3.org/Graphics/SVG/1.1/DTD/svg11.dtd">
<svg version="1.1" id="Layer_1" xmlns="http://www.w3.org/2000/svg" xmlns:xlink="http://www.w3.org/1999/xlink" x="0px" y="0px"
	 width="32.372px" height="60px" viewBox="0 0 32.372 60" enable-background="new 0 0 32.372 60" xml:space="preserve">
<path fill="#EB4F63" d="M4.445,29.705c0-0.088,0-0.177,0-0.266c0.117-0.043,0.25-0.063,0.35-0.133
	c0.861-0.6,1.704-1.227,2.578-1.809c1.088-0.726,2.198-1.418,3.302-2.12c0.271-0.173,0.563-0.312,0.83-0.488
	c0.222-0.146,0.422-0.326,0.632-0.489c0.146,0,0.294,0,0.442,0c0.062,0.159,0.104,0.33,0.19,0.477
	c0.635,1.097,1.281,2.19,1.92,3.284c0.526,0.901,1.052,1.803,1.643,2.819c0.143-0.193,0.223-0.338,0.335-0.453
	c1.341-1.376,2.688-2.747,4.027-4.126c0.165-0.169,0.289-0.248,0.496-0.067c0.305,0.267,0.622,0.519,0.941,0.768
	c1.265,0.987,2.529,1.972,3.795,2.957c0,0.088,0,0.176,0,0.265c-0.106,0.065-0.24,0.108-0.317,0.199
	c-0.612,0.715-1.209,1.443-1.823,2.158c-0.646,0.75-1.312,1.479-1.955,2.23c-0.992,1.154-1.972,2.322-2.957,3.48
	c-0.771,0.907-1.545,1.811-2.315,2.715c-0.06,0-0.118,0-0.179,0c-0.803-0.76-1.611-1.519-2.413-2.281
	c-1.378-1.312-2.757-2.628-4.127-3.951c-1.225-1.184-2.434-2.381-3.658-3.562C5.612,30.766,5.024,30.239,4.445,29.705z"/>
<g id="Layer_1_1_" display="none">
</g>
<g id="Layer_2">
	<path fill="#FFFFFF" d="M1.874,53.062c0.776-0.012,0.737-0.039,1.134-0.009c0.192,0.014,0.205-0.139,0.204-0.536
		C3.2,46.984,3.204,35.548,3.204,35.363c0.037-0.01,0.074-0.02,0.111-0.029c4.286,4.286,8.571,8.572,12.962,12.963
		c4.328-4.328,10.102-9.863,14.409-14.172c0,0.18,0.002,21.656,0,32.062c0,0.358-0.037,0.661-0.07,0.929
		c0.914,0.703,1.159-0.053,2.258-0.054c-0.012-0.181-0.033-0.356-0.033-0.535c-0.016-12.099-0.393-36.12-0.35-36.309
		c0-0.03-0.664-0.785-0.979-1.146c-0.815-0.928-1.625-1.86-2.431-2.797c-0.844-0.981-1.678-1.969-2.515-2.955
		c-1.165-1.372-2.334-2.737-3.522-4.088c-2.726,2.434-5.407,4.83-8.097,7.232c0.672,1.004,1.32,1.97,1.983,2.959
		c0.133-0.109,0.217-0.17,0.29-0.241c1.466-1.434,2.932-2.87,4.397-4.307c0.465-0.457,0.452-0.448,0.959,0
		c0.676,0.602,1.369,1.19,2.063,1.775c1.19,1.003,2.384,1.998,3.601,3.016c-0.111,0.129-0.189,0.235-0.281,0.327
		c-3.817,3.818-7.639,7.635-11.447,11.462c-0.27,0.271-0.414,0.203-0.643-0.026C11.77,37.32,7.666,33.215,3.554,29.118
		c-0.262-0.26-0.293-0.428-0.001-0.672c0.992-0.829,1.974-1.672,2.96-2.508c1.588-1.347,3.174-2.694,4.765-4.036
		c0.345-0.291,0.707-0.563,1.089-0.866c0.353,0.825,0.676,1.576,1.018,2.374c0.499-0.768,0.931-1.476,1.409-2.152
		c0.222-0.313,0.19-0.54-0.027-0.824c-1.019-1.331-2.026-2.67-3.033-4.009c-0.139-0.185-0.268-0.231-0.489-0.112
		c-1.41,0.761-2.83,1.505-4.243,2.261c-0.641,0.343-1.266,0.715-1.912,1.049c-0.601,0.311-1.885,0.91-1.885,0.91s0-0.371,0-0.533
		c0-8.79,0.001-26.369,0.001-26.369c0.011-0.164,0.05-0.328,0.107-0.491c0,0-0.679-0.015-1.627-0.015
		C1.686,13.105,1.874,33.082,1.874,53.062z"/>
</g>
</svg>
