<?xml version="1.0" encoding="utf-8"?>
<!-- Generator: Adobe Illustrator 16.0.3, SVG Export Plug-In . SVG Version: 6.00 Build 0)  -->
<!DOCTYPE svg PUBLIC "-//W3C//DTD SVG 1.1//EN" "http://www.w3.org/Graphics/SVG/1.1/DTD/svg11.dtd">
<svg version="1.1" xmlns="http://www.w3.org/2000/svg" xmlns:xlink="http://www.w3.org/1999/xlink" x="0px" y="0px"
	 width="32.372px" height="60px" viewBox="0 0 32.372 60" enable-background="new 0 0 32.372 60" xml:space="preserve">
<g id="Layer_1" display="none">
</g>
<g id="Layer_2">
	<path fill-rule="evenodd" clip-rule="evenodd" fill="#FFFFFF" d="M29.16,67.66c0.012-0.178,0.035-0.356,0.035-0.535
		c0.002-10.406,0.001-31.569,0.001-31.748c-4.308,4.308-8.591,8.592-12.919,12.92c-4.391-4.391-8.676-8.677-12.962-12.963
		c-0.037,0.01-0.074,0.02-0.111,0.029c0,0.185-0.004,11.621,0.008,17.154c0.001,0.399-0.083,0.551-0.517,0.539
		C1.797,53.03,0.898,53.068,0,53.08C0,33.1,0,13.12,0-6.86c1.08,0,3.24,0,3.24,0L3.206-6.369c0,0-0.001,17.579-0.001,26.369
		c0,0.162,0,0.533,0,0.533s1.284-0.599,1.885-0.91c0.646-0.334,1.271-0.706,1.912-1.049c1.413-0.756,2.833-1.5,4.243-2.261
		c0.221-0.119,0.35-0.073,0.489,0.112c1.007,1.339,2.014,2.678,3.033,4.009c0.217,0.284,0.249,0.511,0.027,0.824
		c-0.478,0.676-0.91,1.384-1.409,2.152c-0.342-0.798-0.665-1.549-1.018-2.374c-0.382,0.303-0.744,0.575-1.089,0.866
		c-1.591,1.342-3.177,2.689-4.765,4.036c-0.986,0.836-1.968,1.679-2.96,2.508c-0.292,0.244-0.261,0.412,0.001,0.672
		c4.112,4.097,8.216,8.203,12.315,12.312c0.229,0.229,0.373,0.297,0.643,0.026c3.809-3.827,7.63-7.643,11.447-11.462
		c0.092-0.092,0.171-0.198,0.282-0.327c-1.216-1.018-2.411-2.013-3.6-3.016c-0.694-0.585-1.386-1.173-2.064-1.775
		c-0.506-0.448-0.494-0.457-0.959,0c-1.465,1.437-2.931,2.873-4.398,4.307c-0.073,0.071-0.157,0.132-0.29,0.241
		c-0.663-0.989-1.311-1.955-1.983-2.959c2.689-2.402,5.371-4.798,8.096-7.232c0.575,0.653,1.119,1.261,1.65,1.878
		c0.629,0.732,1.248,1.474,1.873,2.21c0.837,0.986,1.671,1.974,2.514,2.955c0.805,0.937,1.616,1.869,2.43,2.797
		c0.317,0.361,0.98,1.116,0.98,1.146c-0.042,0.187-0.126,24.79-0.125,36.905c0,0.179,0.022,0.357,0.034,0.535
		C31.32,67.66,30.24,67.66,29.16,67.66z"/>
</g>
</svg>
