<?xml version="1.0" encoding="utf-8"?>
<!-- Generator: Adobe Illustrator 16.0.3, SVG Export Plug-In . SVG Version: 6.00 Build 0)  -->
<!DOCTYPE svg PUBLIC "-//W3C//DTD SVG 1.1//EN" "http://www.w3.org/Graphics/SVG/1.1/DTD/svg11.dtd">
<svg version="1.1" id="Layer_1" xmlns="http://www.w3.org/2000/svg" xmlns:xlink="http://www.w3.org/1999/xlink" x="0px" y="0px"
	 width="32.372px" height="60px" viewBox="0 0 32.372 60" enable-background="new 0 0 32.372 60" xml:space="preserve">
<path fill="#EB4F63" d="M4.445,29.705c0-0.088,0-0.177,0-0.266c0.117-0.043,0.25-0.063,0.35-0.133
	c0.861-0.6,1.704-1.227,2.578-1.809c1.088-0.726,2.198-1.418,3.302-2.12c0.271-0.173,0.563-0.312,0.83-0.488
	c0.222-0.146,0.422-0.326,0.632-0.489c0.146,0,0.294,0,0.442,0c0.062,0.159,0.104,0.33,0.19,0.477
	c0.635,1.097,1.281,2.19,1.92,3.284c0.526,0.901,1.052,1.803,1.643,2.819c0.143-0.193,0.223-0.338,0.335-0.453
	c1.341-1.376,2.688-2.747,4.027-4.126c0.165-0.169,0.289-0.248,0.496-0.067c0.305,0.267,0.622,0.519,0.942,0.768
	c1.264,0.987,2.529,1.972,3.794,2.957c0,0.088,0,0.176,0,0.265c-0.106,0.065-0.24,0.108-0.317,0.199
	c-0.612,0.715-1.209,1.444-1.823,2.158c-0.646,0.75-1.312,1.48-1.956,2.231c-0.992,1.155-1.971,2.322-2.957,3.481
	c-0.771,0.907-1.545,1.81-2.315,2.715c-0.06,0-0.118,0-0.179,0c-0.803-0.761-1.611-1.519-2.413-2.282
	c-1.378-1.313-2.757-2.628-4.127-3.951c-1.225-1.183-2.434-2.381-3.658-3.563C5.612,30.765,5.024,30.239,4.445,29.705z"/>
<g id="Layer_1_1_" display="none">
</g>
<g id="Layer_2">
	<path fill="#FFFFFF" d="M29.161,67.66c0.012-0.178,0.034-0.355,0.034-0.535c0.002-10.406,0.001-31.568,0.001-31.748
		c-4.308,4.309-8.591,8.592-12.919,12.92c-4.391-4.391-8.676-8.677-12.962-12.963c-0.037,0.01-0.074,0.02-0.111,0.029
		c0,0.185-0.004,11.621,0.008,17.154c0.001,0.398-0.083,0.551-0.517,0.539C1.797,53.03,0.898,53.068,0,53.08C0,33.1,0,13.12,0-6.86
		c1.08,0,3.24,0,3.24,0L3.206-6.369c0,0-0.001,17.579-0.001,26.369c0,0.162,0,0.533,0,0.533s1.284-0.599,1.885-0.91
		c0.646-0.334,1.271-0.706,1.912-1.049c1.413-0.756,2.833-1.5,4.243-2.261c0.221-0.119,0.35-0.073,0.489,0.112
		c1.007,1.339,2.014,2.678,3.033,4.009c0.217,0.284,0.249,0.511,0.027,0.824c-0.478,0.676-0.91,1.384-1.409,2.152
		c-0.342-0.798-0.665-1.549-1.018-2.374c-0.382,0.303-0.744,0.575-1.089,0.866c-1.591,1.342-3.177,2.689-4.765,4.036
		c-0.986,0.836-1.968,1.679-2.96,2.508c-0.292,0.244-0.261,0.412,0.001,0.672c4.112,4.097,8.216,8.202,12.315,12.312
		c0.229,0.229,0.373,0.297,0.643,0.026c3.809-3.827,7.63-7.644,11.447-11.462c0.092-0.092,0.17-0.198,0.281-0.327
		c-1.216-1.018-2.41-2.013-3.6-3.016c-0.694-0.585-1.387-1.173-2.064-1.775c-0.506-0.448-0.494-0.457-0.959,0
		c-1.465,1.437-2.931,2.873-4.397,4.307c-0.073,0.071-0.157,0.132-0.29,0.241c-0.663-0.989-1.311-1.955-1.983-2.959
		c2.689-2.402,5.371-4.798,8.097-7.232c0.574,0.653,1.119,1.261,1.649,1.878c0.629,0.732,1.248,1.474,1.873,2.21
		c0.837,0.986,1.671,1.974,2.515,2.955c0.805,0.937,1.615,1.869,2.43,2.797c0.316,0.361,0.98,1.116,0.98,1.146
		c-0.043,0.188-0.127,24.79-0.125,36.905c0,0.179,0.021,0.356,0.033,0.535C31.32,67.66,30.241,67.66,29.161,67.66z"/>
</g>
</svg>
